HIERARCHY
ROOT Hips
{
	OFFSET 0.00000 0.00000 0.00000
	CHANNELS 6 Xposition Yposition Zposition Zrotation Yrotation Xrotation 
	JOINT LHipJoint
	{
		OFFSET 0 0 0
		CHANNELS 3 Zrotation Yrotation Xrotation
		JOINT LeftHip
		{
			OFFSET 1.28858 -1.83292 1.03970
			CHANNELS 3 Zrotation Yrotation Xrotation
			JOINT LeftKnee
			{
				OFFSET 2.47846 -6.80952 0.00000
				CHANNELS 3 Zrotation Yrotation Xrotation
				JOINT LeftAnkle
				{
					OFFSET 2.75274 -7.56311 0.00000
					CHANNELS 3 Zrotation Yrotation Xrotation
					JOINT LeftToe
					{
						OFFSET 0.12848 -0.35301 1.68223
						CHANNELS 3 Zrotation Yrotation Xrotation
						End Site
						{
							OFFSET 0.00000 -0.00000 0.87311
						}
					}
				}
			}
		}
	}
	JOINT RHipJoint
	{
		OFFSET 0 0 0
		CHANNELS 3 Zrotation Yrotation Xrotation
		JOINT RightHip
		{
			OFFSET -1.31183 -1.83292 1.03970
			CHANNELS 3 Zrotation Yrotation Xrotation
			JOINT RightKnee
			{
				OFFSET -2.44740 -6.72417 0.00000
				CHANNELS 3 Zrotation Yrotation Xrotation
				JOINT RightAnkle
				{
					OFFSET -2.67343 -7.34519 0.00000
					CHANNELS 3 Zrotation Yrotation Xrotation
					JOINT RightToe
					{
						OFFSET -0.16914 -0.46471 1.77626
						CHANNELS 3 Zrotation Yrotation Xrotation
						End Site
						{
							OFFSET -0.00000 -0.00000 0.92777
						}
					}
				}
			}
		}
	}
	JOINT lowerback
	{
		OFFSET 0 0 0
		CHANNELS 3 Zrotation Yrotation Xrotation
		JOINT Chest
		{
			OFFSET 0.01249 2.14252 0.03842
			CHANNELS 3 Zrotation Yrotation Xrotation
			JOINT Chest2
			{
				OFFSET -0.02957 2.14199 -0.03751
				CHANNELS 3 Zrotation Yrotation Xrotation
				JOINT lowerneck
				{
					OFFSET 0 0 0
					CHANNELS 3 Zrotation Yrotation Xrotation
					JOINT Neck
					{
						OFFSET -0.01678 1.65709 -0.05476
						CHANNELS 3 Zrotation Yrotation Xrotation
						JOINT Head
						{
							OFFSET 0.07912 1.58331 -0.11843
							CHANNELS 3 Zrotation Yrotation Xrotation
							End Site
							{
								OFFSET 0.03298 1.73940 -0.04271
							}
						}
					}
				}
				JOINT LeftCollar
				{
					OFFSET 0 0 0
					CHANNELS 3 Zrotation Yrotation Xrotation
					JOINT LeftShoulder
					{
						OFFSET 3.39556 1.16496 0.08673
CHANNELS 3 Zrotation Xrotation Yrotation
						JOINT LeftElbow
						{
OFFSET 0 -5.239100 -0.000000
CHANNELS 3 Zrotation Xrotation Yrotation
							JOINT LeftWrist
							{
OFFSET 0 -3.314670 0.000000
CHANNELS 3 Zrotation Xrotation Yrotation
								JOINT lhand
								{
									OFFSET 0 0 0
CHANNELS 3 Zrotation Xrotation Yrotation
									JOINT LFingers
									{
OFFSET 0 -0.965900 0.000000
CHANNELS 3 Zrotation Xrotation Yrotation
										End Site
										{
OFFSET 0 -0.778730 0.000000
										}
									}
								}
								JOINT LThumb
								{
OFFSET 0 0.000000 0.000000
CHANNELS 3 Zrotation Xrotation Yrotation
									End Site
									{
OFFSET 0 -0.790620 0.790620
									}
								}
							}
						}
					}
				}
				JOINT RightCollar
				{
					OFFSET 0 0 0
					CHANNELS 3 Zrotation Yrotation Xrotation
					JOINT RightShoulder
					{
						OFFSET -3.27193 1.31331 0.33940
CHANNELS 3 Zrotation Xrotation Yrotation
						JOINT RightElbow
						{
OFFSET 0 -5.302520 0.000000
CHANNELS 3 Zrotation Xrotation Yrotation
							JOINT RightWrist
							{
OFFSET 0 -3.678750 0.000000
CHANNELS 3 Zrotation Xrotation Yrotation
								JOINT rhand
								{
									OFFSET 0 0 0
CHANNELS 3 Zrotation Xrotation Yrotation
									JOINT RFingers
									{
OFFSET 0 -0.594810 0.000000
CHANNELS 3 Zrotation Xrotation Yrotation
										End Site
										{
OFFSET 0 -0.479550 0.000000
										}
									}
								}
								JOINT RThumb
								{
OFFSET 0 0.000000 0.000000
CHANNELS 3 Zrotation Xrotation Yrotation
									End Site
									{
OFFSET 0 -0.486870 0.486870
									}
								}
							}
						}
					}
				}
			}
		}
	}
}
MOTION
Frames: 9
Frame Time: 0.008333333333333333
8.915400 17.959500 -32.224500 -50.583300 -89.451500 55.845000 0.000000 0.000000 0.000000 -7.230600 -6.466700 10.493100 0.022000 -0.957900 -2.633100 2.609500 -0.779500 -30.392400 2.682400 10.162300 29.503900 0.000000 0.000000 0.000000 14.268000 12.793000 12.999200 -0.029400 1.107800 -3.045400 -0.318200 -20.117800 -30.681400 -0.000700 -0.170600 0.468700 5.648100 0.715700 -6.521300 -3.413900 0.565700 -3.389900 -6.711600 0.149800 0.229000 0.937300 -0.298500 -4.499900 5.097900 -0.842000 5.492500 1.444000 -0.266200 2.549100 -0.000000 0.000000 0.000000 89.199100 -3.300700 6.236200 11.126500 -18.481900 1.815800 7.818200 -8.697400 5.676600 0.000000 0.000000 0.000000 -7.125000 0.000000 0.000000 -13.958400 24.253400 -7.199400 -0.000000 0.000000 0.000000 -69.450200 2.698800 -28.113100 -10.777900 -17.947000 -1.706800 -9.701100 27.487600 49.444900 0.000000 0.000000 0.000000 7.125000 0.000000 -0.000000 56.128000 73.439000 -40.897900
8.916684 17.960647 -32.225200 -68.843871 -89.210300 74.155630 0.000000 0.000000 0.000000 -6.740859 -6.296375 10.387378 0.021758 -0.952592 -2.618346 2.607668 -1.516035 -30.177814 3.099674 10.854612 31.791154 0.000000 0.000000 0.000000 14.696793 13.077087 13.049950 -0.029237 1.103567 -3.033758 -0.367104 -20.166657 -31.067822 -0.001227 -0.222830 0.612207 4.146949 0.666221 -6.912334 -2.066554 0.573307 -3.168892 -4.430802 0.203071 0.660949 0.363627 -0.339482 -4.673280 4.104604 -0.771585 5.388163 1.224160 -0.264437 2.537667 0.000000 0.000000 0.000000 87.088992 -3.866217 8.170762 10.889490 -18.118612 1.741456 7.808800 -7.300110 5.862198 0.000000 0.000000 0.000000 -7.125000 0.000000 0.000000 -13.946842 24.071839 -7.253519 0.000000 0.000000 0.000000 -71.424512 2.702226 -28.058123 -10.767674 -17.931285 -1.703729 -9.414185 26.803767 49.530351 0.000000 0.000000 0.000000 7.125000 0.000000 0.000000 56.597196 73.375033 -41.224678
8.913819 17.960321 -32.223967 -68.290448 -89.272347 73.622739 0.000000 0.000000 0.000000 -6.893660 -6.470372 10.458329 0.021790 -0.952640 -2.618550 2.634546 -1.455806 -30.353187 3.049987 10.775496 31.526410 0.000000 0.000000 0.000000 14.577791 12.991695 13.013458 -0.029974 1.116929 -3.070696 -0.351409 -20.039762 -30.805403 -0.003217 -0.364371 1.001090 3.526347 0.557461 -7.169441 -1.664839 0.457030 -3.033683 -3.667490 0.162808 0.925737 0.171199 -0.282529 -4.802256 3.767263 -0.655659 5.377577 1.153158 -0.217268 2.553463 0.000000 0.000000 0.000000 86.453107 -3.798131 8.774543 10.824014 -18.018010 1.721138 7.673001 -7.192606 5.560454 0.000000 0.000000 0.000000 -7.125000 0.000000 0.000000 -14.075890 24.368915 -7.224757 0.000000 0.000000 0.000000 -71.963483 2.239104 -28.785414 -10.721863 -17.860767 -1.689669 -9.351469 27.399565 49.459792 0.000000 0.000000 0.000000 7.125000 0.000000 0.000000 56.434770 73.317515 -41.028734
8.913700 17.963198 -32.225814 -73.293073 -89.256070 78.687400 0.000000 0.000000 0.000000 -6.805396 -6.325237 10.321649 0.021642 -0.950322 -2.612083 2.599483 -1.097311 -30.242920 2.885660 10.506946 30.635235 0.000000 0.000000 0.000000 14.620721 13.084799 12.937848 -0.029289 1.104699 -3.036910 -0.554766 -19.946662 -31.997940 -0.015412 -0.753644 2.071303 2.880254 0.548026 -7.469168 -1.214322 0.475436 -2.904327 -2.833164 0.185799 1.219750 -0.041038 -0.326257 -4.943415 3.485759 -0.677951 5.390825 1.098952 -0.238133 2.583406 0.000000 0.000000 0.000000 85.825638 -3.903974 8.758528 10.780614 -17.951100 1.707720 7.981151 -7.561309 5.594024 0.000000 0.000000 0.000000 -7.125000 0.000000 0.000000 -13.847877 24.332475 -7.112647 0.000000 0.000000 0.000000 -72.558911 2.262577 -29.026661 -10.754358 -17.910757 -1.699621 -9.648463 27.598837 49.361866 0.000000 0.000000 0.000000 7.125000 0.000000 0.000000 55.921133 73.378658 -40.662641
8.912714 17.965686 -32.228096 -79.201432 -89.159663 84.627866 0.000000 0.000000 0.000000 -6.656005 -6.318245 10.326151 0.022328 -0.964347 -2.650725 2.612443 -1.165507 -30.300700 2.930907 10.582033 30.883136 0.000000 0.000000 0.000000 14.811234 13.255388 12.958681 -0.028731 1.094659 -3.009342 -0.836230 -19.844231 -33.608675 -0.039165 -1.276225 3.509161 2.302644 0.578747 -7.649006 -0.722158 0.544991 -2.836942 -1.991316 0.229992 1.386008 -0.392077 -0.384151 -5.033676 3.343167 -0.717651 5.411982 1.113243 -0.267079 2.609268 0.000000 0.000000 0.000000 85.038199 -4.181879 9.218150 10.719392 -17.856784 1.688893 7.997981 -7.273853 5.717963 0.000000 0.000000 0.000000 -7.125000 0.000000 0.000000 -13.823396 24.210844 -7.139733 0.000000 0.000000 0.000000 -73.245557 2.498339 -28.838502 -10.807727 -17.992923 -1.716020 -9.899788 27.400839 49.438698 0.000000 0.000000 0.000000 7.125000 0.000000 0.000000 55.960096 73.509413 -40.830174
8.910944 17.967145 -32.229696 -82.582922 -89.110514 88.029807 0.000000 0.000000 0.000000 -6.597206 -6.393423 10.382064 0.022874 -0.976134 -2.683080 2.654145 -1.456497 -30.468865 3.068912 10.805879 31.627867 0.000000 0.000000 0.000000 14.855416 13.226848 12.908795 -0.028437 1.088993 -2.993705 -0.836363 -19.797036 -33.558569 -0.040403 -1.294505 3.559623 2.315348 0.619747 -7.632884 -0.722744 0.597303 -2.906810 -1.994807 0.253460 1.307884 -0.453506 -0.415165 -4.853211 3.553247 -0.766304 5.334406 1.189053 -0.289172 2.553456 0.000000 0.000000 0.000000 84.946569 -4.302800 9.622261 10.738267 -17.885947 1.694655 7.594035 -7.036230 5.619820 0.000000 0.000000 0.000000 -7.125000 0.000000 0.000000 -14.127379 24.311666 -7.272216 0.000000 0.000000 0.000000 -73.200091 2.558429 -28.850912 -10.817639 -18.008170 -1.719127 -10.000291 27.467185 49.534328 0.000000 0.000000 0.000000 7.125000 0.000000 0.000000 56.172218 73.593404 -41.094568
8.908564 17.968238 -32.230284 -85.614222 -89.060980 91.095736 0.000000 0.000000 0.000000 -6.555755 -6.452228 10.414836 0.023507 -0.989551 -2.720080 2.681977 -1.507459 -30.619097 3.093524 10.844886 31.758629 0.000000 0.000000 0.000000 14.900776 13.223320 12.865074 -0.028584 1.091858 -3.001499 -0.855859 -19.677133 -33.541337 -0.061054 -1.592243 4.380067 2.254948 0.616646 -7.659327 -0.664741 0.594132 -2.967487 -1.901347 0.250278 1.258698 -0.493062 -0.417581 -4.705803 3.669536 -0.773121 5.297294 1.232688 -0.292102 2.515394 0.000000 0.000000 0.000000 84.762195 -4.381808 10.369517 10.674225 -17.787214 1.675052 7.542279 -6.211820 5.783256 0.000000 0.000000 0.000000 -7.125000 0.000000 0.000000 -14.148460 24.152356 -7.337599 0.000000 0.000000 0.000000 -73.213761 2.509548 -28.812164 -10.850592 -18.058844 -1.729316 -10.050978 27.397101 49.676236 0.000000 0.000000 0.000000 7.125000 0.000000 0.000000 56.565281 73.681165 -41.515564
8.906458 17.969046 -32.229641 -87.163125 -88.999049 92.669152 0.000000 0.000000 0.000000 -6.449220 -6.363773 10.387346 0.024232 -1.004420 -2.760970 2.674223 -1.645074 -30.537295 3.172937 10.969904 32.178542 0.000000 0.000000 0.000000 14.970363 13.247451 12.836460 -0.028200 1.083896 -2.979651 -0.858113 -19.652146 -33.526743 -0.065965 -1.655641 4.554912 2.013924 0.598449 -7.688955 -0.452264 0.581004 -3.025029 -1.547803 0.243997 1.211072 -0.434698 -0.404649 -4.617619 3.460290 -0.747194 5.350042 1.155758 -0.284313 2.513316 0.000000 0.000000 0.000000 84.420168 -4.513159 10.900747 10.576197 -17.635777 1.645191 7.599104 -5.527086 5.860399 0.000000 0.000000 0.000000 -7.125000 0.000000 0.000000 -14.099439 24.076265 -7.336345 0.000000 0.000000 0.000000 -73.455411 2.550960 -28.539813 -10.895754 -18.128327 -1.743344 -10.164188 27.108337 49.594767 0.000000 0.000000 0.000000 7.125000 0.000000 0.000000 56.233946 73.683659 -41.239674
8.903397 17.971507 -32.229538 -88.398894 -89.015307 93.943112 0.000000 0.000000 0.000000 -6.443826 -6.282894 10.338914 0.024617 -1.013023 -2.784704 2.655128 -1.490597 -30.465611 3.082781 10.827393 31.700535 0.000000 0.000000 0.000000 14.864688 13.075391 12.723371 -0.028834 1.096550 -3.014498 -0.822133 -19.628001 -33.286266 -0.042102 -1.318821 3.626688 1.806976 0.585107 -7.691007 -0.361803 0.574154 -3.113673 -1.339204 0.239234 1.117879 -0.278877 -0.417655 -4.539638 3.263905 -0.764471 5.405185 1.064500 -0.295732 2.514373 0.000000 0.000000 0.000000 84.259161 -4.546703 11.012843 10.530402 -17.564821 1.631363 7.613170 -5.356084 5.768386 0.000000 0.000000 0.000000 -7.125000 0.000000 0.000000 -14.098354 24.166115 -7.305493 0.000000 0.000000 0.000000 -73.493067 2.526070 -28.776993 -10.911971 -18.153174 -1.748379 -10.081581 27.182030 49.394679 0.000000 0.000000 0.000000 7.125000 0.000000 0.000000 55.691176 73.554776 -40.652143
